<?xml version="1.0" encoding="UTF-8"?>
<svg id="b" data-name="Capa 2" xmlns="http://www.w3.org/2000/svg" width="399.48" height="160.37" viewBox="0 0 399.48 160.37">
  <defs>
    <style>
      .e {
        fill: #4c4c4c;
      }

      .e, .f, .g {
        stroke-width: 0px;
      }

      .f {
        fill: #a31e22;
      }

      .g {
        fill: #ffddae;
      }
    </style>
  </defs>
  <g id="c" data-name="Capa 1">
    <g id="d" data-name="logo_PUERPERIO">
      <g>
        <path class="g" d="m399.48,80.18c0,44.29-37.95,80.19-84.76,80.19s-84.76-35.9-84.76-80.19S267.91,0,314.72,0s84.76,35.9,84.76,80.18Z"/>
        <path class="f" d="m333.23,76.08c0,10.27-9.26,18.6-20.69,18.6s-20.69-8.33-20.69-18.6,9.26-18.6,20.69-18.6,20.69,8.33,20.69,18.6Z"/>
      </g>
      <g>
        <path class="f" d="m5.78,44.68h20.43c9.56,0,16.03,7.02,16.03,16.93s-6.47,17.07-16.03,17.07h-8.39v15.21H5.78v-49.2Zm17.96,23.67c4.2,0,6.26-2.82,6.26-6.74s-2.06-6.61-6.05-6.61h-6.12v13.35h5.92Z"/>
        <path class="f" d="m47.55,58.44h11.9v20.78c0,3.3,1.31,4.68,3.78,4.68,5.09,0,7.5-4.47,7.5-9.77v-15.69h11.9v35.44h-11.42v-3.1c0-1.17.14-2.2.14-2.2h-.14c-1.93,3.78-6.33,6.12-11.08,6.12-7.02,0-12.59-3.3-12.59-13.28v-22.98Z"/>
        <path class="f" d="m107.34,57.62c10.46,0,16.38,7.29,16.38,17.14,0,1.17-.28,3.72-.28,3.72h-22.36c.89,4.34,4.47,6.33,8.26,6.33,5.09,0,9.77-3.58,9.77-3.58l4.4,8.33s-5.71,5.16-15.14,5.16c-12.66,0-19.47-9.15-19.47-18.58,0-10.39,7.02-18.51,18.44-18.51Zm4.4,14.04c0-2.68-1.86-5.09-4.68-5.09-3.44,0-5.09,2.48-5.71,5.09h10.39Z"/>
        <path class="f" d="m130.18,58.44h11.42v5.99c0,1.17-.14,2.2-.14,2.2h.14c1.51-4.82,5.99-8.81,11.28-8.81.69,0,1.38.14,1.38.14v11.7s-.96-.21-2.41-.21c-2.82,0-7.43.89-9.15,6.19-.41,1.31-.62,2.89-.62,4.82v13.42h-11.9v-35.44Z"/>
        <path class="f" d="m159.77,58.44h10.73v1.79c0,1.17-.14,2.27-.14,2.27h.14s3.23-4.89,10.73-4.89c9.63,0,15.96,7.57,15.96,18.58s-7.09,18.51-16.51,18.51c-5.78,0-9.01-3.37-9.01-3.37h-.14s.14,1.24.14,3.03v13.28h-11.9v-49.2Zm18.51,26.43c3.72,0,6.95-3.03,6.95-8.46s-2.82-8.74-6.95-8.74c-3.58,0-6.95,2.61-6.95,8.74,0,4.27,2.27,8.46,6.95,8.46Z"/>
        <path class="f" d="m219.5,57.62c10.46,0,16.38,7.29,16.38,17.14,0,1.17-.28,3.72-.28,3.72h-22.36c.89,4.34,4.47,6.33,8.26,6.33,5.09,0,9.77-3.58,9.77-3.58l4.4,8.33s-5.71,5.16-15.14,5.16c-12.66,0-19.47-9.15-19.47-18.58,0-10.39,7.02-18.51,18.44-18.51Zm4.4,14.04c0-2.68-1.86-5.09-4.68-5.09-3.44,0-5.09,2.48-5.71,5.09h10.39Z"/>
        <path class="f" d="m242.34,58.44h11.42v5.99c0,1.17-.14,2.2-.14,2.2h.14c1.51-4.82,5.99-8.81,11.28-8.81.69,0,1.38.14,1.38.14v11.7s-.96-.21-2.41-.21c-2.82,0-7.43.89-9.15,6.19-.41,1.31-.62,2.89-.62,4.82v13.42h-11.9v-35.44Z"/>
        <path class="f" d="m271.93,58.44h11.9v35.44h-11.9v-35.44Zm.14-13.76h11.63v9.29h-11.63v-9.29Z"/>
      </g>
      <g>
        <path class="e" d="m9.71,98.92c2.19,0,3.3,1.14,3.3,1.14l-1.01,1.57s-.88-.79-2.09-.79c-1.8,0-2.53,1.15-2.53,2.42,0,1.63,1.13,2.6,2.46,2.6,1.01,0,1.74-.62,1.74-.62v-.66h-1.21v-1.79h3.07v4.85h-1.75v-.24c0-.18.01-.36.01-.36h-.02s-.83.74-2.25.74c-2.19,0-4.21-1.64-4.21-4.45,0-2.49,1.88-4.41,4.5-4.41Z"/>
        <path class="e" d="m22.57,105.85h-2.67l-.52,1.8h-2.16l2.91-8.58h2.21l2.91,8.58h-2.16l-.53-1.8Zm-1.34-4.82s-.19.94-.35,1.48l-.49,1.67h1.69l-.48-1.67c-.16-.54-.35-1.48-.35-1.48h-.02Z"/>
        <path class="e" d="m29.46,99.07h2.1v6.78h3.5v1.8h-5.6v-8.58Z"/>
        <path class="e" d="m39.45,99.07h5.37v1.8h-3.27v1.56h2.61v1.8h-2.61v1.62h3.44v1.8h-5.54v-8.58Z"/>
        <path class="e" d="m49.75,99.07h2.99c.88,0,1.3.06,1.67.2.97.37,1.58,1.25,1.58,2.49,0,.91-.43,1.91-1.28,2.34v.02s.12.16.32.52l1.67,3h-2.34l-1.52-2.89h-.98v2.89h-2.1v-8.58Zm3.01,3.89c.67,0,1.09-.37,1.09-1.06,0-.65-.24-1.03-1.3-1.03h-.71v2.09h.91Z"/>
        <path class="e" d="m61.17,99.07h2.1v8.58h-2.1v-8.58Zm1.16-2.35h2.05l-1.42,1.8h-1.61l.97-1.8Z"/>
        <path class="e" d="m72.82,105.85h-2.67l-.52,1.8h-2.16l2.91-8.58h2.21l2.91,8.58h-2.16l-.53-1.8Zm-1.34-4.82s-.19.94-.35,1.48l-.49,1.67h1.69l-.48-1.67c-.16-.54-.35-1.48-.35-1.48h-.02Z"/>
        <path class="e" d="m84.62,99.07h2.28l1.51,4.88c.17.54.32,1.38.32,1.38h.02s.16-.84.32-1.38l1.54-4.88h2.24l-3.02,8.58h-2.18l-3.03-8.58Z"/>
        <path class="e" d="m97.04,99.07h2.1v8.58h-2.1v-8.58Z"/>
        <path class="e" d="m104.4,99.07h2.99c.88,0,1.3.06,1.67.2.97.37,1.58,1.25,1.58,2.49,0,.91-.43,1.91-1.28,2.34v.02s.12.16.32.52l1.67,3h-2.34l-1.52-2.89h-.98v2.89h-2.1v-8.58Zm3.01,3.89c.67,0,1.09-.37,1.09-1.06,0-.65-.24-1.03-1.3-1.03h-.71v2.09h.91Z"/>
        <path class="e" d="m117.5,100.87h-2.6v-1.8h7.3v1.8h-2.6v6.78h-2.1v-6.78Z"/>
        <path class="e" d="m126.38,99.07h2.1v5.42c0,.9.59,1.38,1.49,1.38s1.49-.48,1.49-1.38v-5.42h2.1v5.42c0,1.93-1.42,3.3-3.57,3.3s-3.6-1.37-3.6-3.3v-5.42Z"/>
        <path class="e" d="m142.89,105.85h-2.67l-.52,1.8h-2.16l2.91-8.58h2.21l2.91,8.58h-2.16l-.53-1.8Zm-1.34-4.82s-.19.94-.35,1.48l-.49,1.67h1.69l-.48-1.67c-.16-.54-.35-1.48-.35-1.48h-.02Z"/>
        <path class="e" d="m149.78,99.07h2.1v6.78h3.5v1.8h-5.6v-8.58Z"/>
      </g>
    </g>
  </g>
</svg>