<?xml version="1.0" encoding="UTF-8"?>
<svg id="b" data-name="Capa 2" xmlns="http://www.w3.org/2000/svg" viewBox="0 0 250 150">
  <defs>
    <style>
      .e {
        fill: none;
      }

      .e, .f, .g {
        stroke-width: 0px;
      }

      .f {
        fill: #f9efc5;
      }

      .g {
        fill: #ffddae;
      }
    </style>
  </defs>
  <g id="c" data-name="Capa 1">
    <g id="d" data-name="logo_COCUYO">
      <rect class="e" width="250" height="150"/>
      <g>
        <g>
          <g>
            <path class="g" d="m44.27,98.79c1.58.11,2.9-.29,3.95-1.21,1.05-.92,1.85-2.03,2.4-3.32l8.01,4.47c-.33.66-.8,1.51-1.41,2.54-.61,1.03-1.46,2.04-2.57,3.04-1.11,1-2.51,1.85-4.23,2.57-1.71.72-3.82,1.08-6.33,1.08h-.05c-2.8,0-5.15-.44-7.04-1.33-1.9-.88-3.45-2.07-4.64-3.57-1.2-1.49-2.07-3.22-2.63-5.19-.55-1.97-.88-4.02-.99-6.16v-8.51c.04-2.03.38-4.02,1.02-5.99.64-1.97,1.6-3.73,2.87-5.28,1.27-1.54,2.86-2.79,4.78-3.73,1.92-.94,4.14-1.41,6.68-1.41h.06c2.24,0,4.18.31,5.8.94,1.62.63,3.01,1.44,4.17,2.43,1.16.99,2.1,2.12,2.82,3.37.72,1.25,1.28,2.5,1.68,3.75l-8.01,4.48c-.22-.66-.52-1.34-.91-2.04-.39-.7-.85-1.33-1.41-1.88-.56-.56-1.18-1-1.88-1.33-.7-.33-1.44-.48-2.21-.44-1.88.15-3.38.89-4.5,2.24-1.13,1.34-1.68,3.03-1.68,5.05v8.01c0,2.03.57,3.73,1.71,5.11,1.14,1.38,2.65,2.15,4.53,2.29Z"/>
            <path class="g" d="m91.36,97.61c-.61,2.04-1.65,3.84-3.12,5.38-1.51,1.62-3.23,2.85-5.17,3.7-1.94.85-3.99,1.27-6.16,1.27h-.06c-2.14,0-4.17-.42-6.1-1.27-1.93-.85-3.67-2.06-5.22-3.65-1.44-1.55-2.46-3.29-3.07-5.25-.61-1.95-.93-4.03-.97-6.24v-9.61c0-1.76.35-3.56,1.05-5.38.7-1.83,1.69-3.43,2.98-4.83,1.55-1.58,3.28-2.8,5.19-3.64,1.91-.84,3.96-1.27,6.13-1.27h.06c2.17,0,4.22.42,6.16,1.27,1.93.85,3.65,2.06,5.17,3.64,1.32,1.4,2.32,2.98,2.98,4.75.66,1.77,1.01,3.59,1.05,5.47v9.61c0,1.99-.31,4.01-.91,6.05Z"/>
            <path class="g" d="m110.56,98.79c1.58.11,2.9-.29,3.95-1.21,1.05-.92,1.85-2.03,2.4-3.32l8.01,4.47c-.33.66-.8,1.51-1.41,2.54-.61,1.03-1.46,2.04-2.57,3.04-1.1,1-2.51,1.85-4.23,2.57-1.71.72-3.82,1.08-6.32,1.08h-.05c-2.8,0-5.15-.44-7.04-1.33-1.9-.88-3.44-2.07-4.64-3.57-1.2-1.49-2.07-3.22-2.62-5.19-.55-1.97-.88-4.02-1-6.16v-8.51c.04-2.03.38-4.02,1.02-5.99.64-1.97,1.6-3.73,2.87-5.28,1.27-1.54,2.86-2.79,4.78-3.73,1.92-.94,4.14-1.41,6.68-1.41h.06c2.24,0,4.18.31,5.8.94,1.62.63,3.01,1.44,4.17,2.43,1.16.99,2.1,2.12,2.82,3.37.72,1.25,1.28,2.5,1.68,3.75l-8.01,4.48c-.22-.66-.52-1.34-.91-2.04-.39-.7-.86-1.33-1.41-1.88-.55-.56-1.18-1-1.88-1.33-.7-.33-1.44-.48-2.21-.44-1.88.15-3.38.89-4.5,2.24-1.12,1.34-1.68,3.03-1.68,5.05v8.01c0,2.03.57,3.73,1.71,5.11,1.14,1.38,2.65,2.15,4.53,2.29Z"/>
            <path class="g" d="m158.39,91.5c0,2.43-.33,4.66-.97,6.68-.65,2.03-1.58,3.77-2.82,5.22-1.23,1.45-2.77,2.58-4.61,3.37-1.84.8-3.98,1.17-6.41,1.13h-.06c-2.69.04-4.97-.38-6.85-1.27-1.88-.88-3.41-2.09-4.58-3.62-1.18-1.53-2.04-3.29-2.57-5.28-.54-1.99-.8-4.07-.8-6.24v-24.75h9.55v24.03c0,.99.1,1.93.31,2.81s.52,1.66.97,2.32c.44.66.99,1.19,1.66,1.57.66.39,1.45.58,2.37.58s1.71-.19,2.37-.58c.66-.38,1.21-.91,1.63-1.57.42-.67.74-1.44.94-2.32.2-.88.31-1.82.31-2.81v-24.03h9.55v24.75Z"/>
            <polygon class="g" points="180.92 87.36 180.92 107.9 172.2 107.9 172.2 87.36 161.64 66.81 172.03 66.81 176.84 76.53 181.59 66.81 191.97 66.81 180.92 87.36"/>
            <path class="g" d="m220.33,97.61c-.61,2.04-1.65,3.84-3.12,5.38-1.51,1.62-3.24,2.85-5.17,3.7-1.94.85-3.99,1.27-6.16,1.27h-.06c-2.14,0-4.17-.42-6.1-1.27-1.93-.85-3.67-2.06-5.22-3.65-1.43-1.55-2.46-3.29-3.07-5.25-.61-1.95-.93-4.03-.97-6.24v-9.61c0-1.76.35-3.56,1.05-5.38.7-1.83,1.69-3.43,2.98-4.83,1.55-1.58,3.28-2.8,5.19-3.64,1.91-.84,3.96-1.27,6.13-1.27h.06c2.17,0,4.22.42,6.16,1.27,1.93.85,3.65,2.06,5.17,3.64,1.32,1.4,2.32,2.98,2.98,4.75.66,1.77,1.01,3.59,1.05,5.47v9.61c0,1.99-.3,4.01-.91,6.05Z"/>
          </g>
          <g>
            <path class="f" d="m76.94,98.01c-.79,1.08-1.62.46-2.49-.46-.42-.45-1.2-2.81-1.59-4.85-.2-1.06-.94-8.38-.11-9.31.78-.87,2.75.16,3.81.12,1.06.04,3.05-1,3.83-.12.83.93.08,8.25-.11,9.31-.39,2.04-1.17,4.39-1.59,4.85-.87.92-1.7,1.54-2.49.46h.75Z"/>
            <polygon class="f" points="76.05 78.44 72.03 97.2 65.06 91.18 76.05 78.44"/>
            <polygon class="f" points="77.66 78.61 80.83 97.28 88.09 90.91 77.66 78.61"/>
            <path class="f" d="m75.59,77.9c-.08,0-.64-.1-.64-.1-.1-.08.11-.34.14-.41.08-.2.23-.49.28-.58.06-.09.22-.31.32-.4.09-.08.3-.22.57-.3.08-.02.37-.03.45,0,.27.08.62.32.67.4.08.12.14.2.2.3.05.09.2.37.29.57.03.07.24.41.15.49,0,0-.16.02-.31.03l-.32.03-1.8-.04Z"/>
            <path class="f" d="m76.88,83.2h-.77c-.16.05-1.03-.25-1.29-.32-.33-.09-1.25-.41-1.52-.5-.37-.12-.29-.3-.28-.68,0-.46.85-2.77,1.38-3.33.24-.24.51-.21.87-.15.41.06.77.12,1.2.12h-.02.11s-.03-.01-.03-.01c.43,0,.78-.06,1.2-.12.36-.05.63-.09.87.15.53.55,1.37,2.87,1.38,3.33,0,.38.09.57-.29.68-.27.09-1.19.41-1.52.5-.26.07-1.13.37-1.28.32Z"/>
            <path class="f" d="m75.94,80.47c.97,1.16-1.18,4.57-4.81,7.61-3.63,3.04-7.36,4.57-8.33,3.42-.97-1.16,1.18-4.57,4.81-7.61,3.63-3.05,7.36-4.57,8.33-3.42Z"/>
            <path class="f" d="m76.98,80.44c-.97,1.16,1.18,4.57,4.81,7.61,3.63,3.05,7.36,4.57,8.33,3.42.97-1.16-1.18-4.57-4.81-7.62-3.63-3.04-7.36-4.57-8.33-3.41Z"/>
            <path class="f" d="m77.57,76.74c.32-.11.41-.81.55-.6.09.13.69-.45.81-.63.12-.17.51-.5.75-.77.28-.31.42-.31.63-.49.21-.09.73-.08.43-.09-.53.25-.51.46-.86.72-.21.16-.74.68-.85.84-.11.15-.37.44-.66.66-.18.14-.66.49-.87.31l.07.06Z"/>
            <path class="f" d="m75.4,76.87c-.32-.11-.41-.81-.55-.6-.09.14-.69-.45-.82-.64-.12-.17-.5-.5-.75-.77-.28-.31-.42-.31-.62-.5-.21-.08-.73-.07-.43-.08.53.25.51.46.86.73.21.16.74.68.85.84.11.15.37.43.66.66.18.13.66.49.87.31l-.07.06Z"/>
          </g>
        </g>
        <g>
          <path class="g" d="m28.75,42.25h4.2c2.06,0,3.7.98,3.7,3.37,0,1.52-1.02,3.02-2.51,3.46l3.03,5-1.37.83-3.15-5.59h-2.3v5.29h-1.59v-12.35Zm3.68,5.64c1.54,0,2.56-.88,2.56-2.28,0-1.11-.66-1.94-2.09-1.94h-2.56v4.22h2.09Z"/>
          <polygon class="g" points="43.17 42.25 50.87 42.25 50.87 43.67 44.76 43.67 44.76 47.37 49.81 47.37 49.81 48.8 44.76 48.8 44.76 53.18 50.87 53.18 50.87 54.6 43.17 54.6 43.17 42.25"/>
          <path class="g" d="m58.2,50.69c.31,1.52,1.04,2.63,2.7,2.63,1.3,0,2.32-.71,2.32-2.09,0-1.52-1.28-1.89-2.49-2.39-1.8-.76-3.51-1.23-3.51-3.55,0-2.08,1.68-3.25,3.63-3.25,2.06,0,3.27,1.19,3.77,3.11l-1.52.45c-.28-1.21-.92-2.06-2.28-2.06-1.02,0-2.02.52-2.02,1.64s.71,1.49,1.66,1.92l2.63,1.16c1.11.62,1.71,1.61,1.71,2.89,0,2.35-1.63,3.68-3.91,3.68s-3.75-1.47-4.12-3.68l1.42-.45Z"/>
          <polygon class="g" points="72.47 53.18 74.2 53.18 74.2 43.67 72.47 43.67 72.47 42.25 77.54 42.25 77.54 43.67 75.79 43.67 75.79 53.18 77.54 53.18 77.54 54.6 72.47 54.6 72.47 53.18"/>
          <path class="g" d="m84.94,42.25h4.12c3.51,0,5.1,1.45,5.1,6.02,0,3.86-.66,6.33-5.1,6.33h-4.12v-1.42h1.28v-9.51h-1.28v-1.42Zm2.87,10.93h1.68c2.09,0,3.01-1.18,3.01-4.74,0-3.79-1.09-4.77-3.06-4.77h-1.64v9.51Z"/>
          <polygon class="g" points="100.06 42.25 107.77 42.25 107.77 43.67 101.65 43.67 101.65 47.37 106.7 47.37 106.7 48.8 101.65 48.8 101.65 53.18 107.77 53.18 107.77 54.6 100.06 54.6 100.06 42.25"/>
          <polygon class="g" points="113.55 42.25 115.52 42.25 120.31 52.66 120.36 52.61 120.21 49.41 120.21 42.25 121.8 42.25 121.8 54.6 119.84 54.6 115.05 44.2 115 44.24 115.14 47.47 115.14 54.6 113.55 54.6 113.55 42.25"/>
          <path class="g" d="m136.34,52.23c-1,1.56-2.18,2.58-4.1,2.58-3.6,0-4.74-3.32-4.74-6.38,0-4.93,2.61-6.4,4.6-6.4s3.03.99,3.91,2.63l-1.45.73c-.52-.99-1.23-1.87-2.44-1.87-2.46,0-2.96,2.98-2.96,4.88s.45,4.91,2.96,4.91c1.45,0,2.18-.88,2.92-1.99l1.31.9Z"/>
          <polygon class="g" points="143.59 53.18 145.32 53.18 145.32 43.67 143.59 43.67 143.59 42.25 148.66 42.25 148.66 43.67 146.91 43.67 146.91 53.18 148.66 53.18 148.66 54.6 143.59 54.6 143.59 53.18"/>
          <path class="g" d="m158.17,51.23l-1.16,3.68-1.56-.57,3.89-12.09h2.04l3.89,12.09-1.56.57-1.14-3.68h-4.38Zm2.18-7.13l-1.76,5.71h3.51l-1.76-5.71Z"/>
        </g>
      </g>
    </g>
  </g>
</svg>