<?xml version="1.0" encoding="UTF-8"?>
<svg id="b" data-name="Capa 2" xmlns="http://www.w3.org/2000/svg" viewBox="0 0 165 150">
  <defs>
    <style>
      .e {
        fill: none;
      }

      .e, .f {
        stroke-width: 0px;
      }

      .f {
        fill: #ffddae;
      }
    </style>
  </defs>
  <g id="c" data-name="Capa 1">
    <g id="d" data-name="logo_ALCALDÃA">
      <g>
        <g>
          <polygon class="f" points="83.28 41.52 84.93 38.96 82.36 39.92 81.45 37.61 80.46 39.92 77.81 38.96 79.55 41.52 83.28 41.52"/>
          <path class="f" d="m75.71,34.49c1.45-.07,2.6-.66,2.68-1.39,0-.66-1.22-1.4-2.75-1.4-1.45.08-2.21.82-2.21,1.48-.09.74.76,1.4,2.29,1.32Z"/>
          <path class="f" d="m60.98,79.35c-.81-1.2-2.06-1.76-2.68-1.39-.61.36-.61,1.69.23,2.86.84,1.18,1.83,1.47,2.45,1.1.61-.37.79-1.41,0-2.57Z"/>
          <path class="f" d="m91.9,33.17c0-.66-.76-1.39-2.22-1.48-1.52,0-2.74.74-2.74,1.4.07.73,1.22,1.32,2.66,1.39,1.54.08,2.37-.58,2.3-1.32Z"/>
          <path class="f" d="m79.42,86.56c-1.53-.22-2.82.15-2.98.81-.15.66.84,1.62,2.3,1.91,1.45.3,2.45-.22,2.6-.95.16-.67-.46-1.47-1.91-1.77Z"/>
          <path class="f" d="m108.53,59.42c.08-1.48-.54-2.65-1.22-2.73-.77-.07-1.6,1.03-1.67,2.5-.07,1.4.61,2.21,1.28,2.28.78.07,1.53-.66,1.61-2.05Z"/>
          <path class="f" d="m59.78,59.2c-.08-1.47-.91-2.57-1.68-2.51-.68.08-1.22,1.25-1.14,2.73.08,1.39.84,2.13,1.53,2.05.76-.07,1.36-.88,1.29-2.28Z"/>
          <path class="f" d="m107.66,39.86c.68-.07,1.38-.88,1.3-2.27-.07-1.47-.92-2.57-1.67-2.5-.7.08-1.3,1.24-1.23,2.72.07,1.39.83,2.13,1.6,2.05Z"/>
          <path class="f" d="m104.47,79.35c-.84,1.18-.69,2.21,0,2.58.61.37,1.61.07,2.44-1.1.85-1.17.85-2.5.23-2.86-.61-.37-1.84.21-2.68,1.39Z"/>
          <path class="f" d="m57.78,39.86c.69.07,1.45-.66,1.53-2.05.08-1.48-.45-2.65-1.14-2.72-.76-.08-1.61,1.03-1.68,2.5-.08,1.39.54,2.19,1.3,2.27Z"/>
          <path class="f" d="m99.86,62.79c-.22-.07-1.13.88-1.13.88-.24-.73-1.38-.73-1.38-.73v.29c.77.07.92,1.1.69,1.47-.08.22.76.73.92.51.22-.37,1.22-.66,1.67,0l.16-.15s-.37-1.03-1.14-.88c0,0,.46-1.24.22-1.4Z"/>
          <path class="f" d="m66.11,65.22c.15.22,1-.29.92-.51-.22-.37-.07-1.4.7-1.47v-.29s-1.16,0-1.38.73c0,0-.92-.95-1.14-.88-.23.15.23,1.4.23,1.4-.76-.14-1.14.88-1.14.88l.14.14c.46-.66,1.46-.37,1.68,0Z"/>
          <path class="f" d="m89.63,73.09c-.69-.66-1.53-1.03-2.29-1.03-.08.88.15,1.76.84,2.49.61.74,1.45,1.1,2.29,1.1.06-.87-.23-1.84-.85-2.57Z"/>
          <path class="f" d="m74.59,75.66c.84,0,1.68-.36,2.29-1.1.69-.74.91-1.61.83-2.49-.76,0-1.6.37-2.28,1.03-.61.73-.92,1.69-.84,2.57Z"/>
          <path class="f" d="m98.27,65.15c-1.69-1.04-3.75-.81-4.59.51-.81,1.28-.2,3.04,1.38,4.09-1.14.1-2.6-1.44-2.6-1.44-.64,1.19.53,1.85,1.44,2.17-.13.09-.23.2-.35.3-.87-.21-1.19.18-1.19.18-.15-.05-2.07-2.12-3.49-3.57l1.27-.25c-.93-2.11-3.39-2.57-5.07-3.86-1.26-.96.16-1.39.5-1.06,3.13,2.64,5.95.81,5.95.81-2.22-.75-3.28-3.24-3.28-3.24,4.58,2.65,8.09-.37,8.09-.37-3.04.51-5.41-2.35-5.41-2.35,4.73,1.1,8.01-2.06,8.01-2.06-1.75.14-6.1-1.69-6.1-1.69,6.95-.22,7.56-5.15,7.63-5.15-1.91,1.26-7.03.66-7.03.66,7.27-2.57,6.72-8.53,6.72-8.53-1.53,2.27-8.55,4.48-8.55,4.48-1.92.59-3.44,2.28-3.44,4.26-.08.82-.84,1.48-1.68,1.48-1.87,0-1.84-2.7-1.84-3.98,0-1.91-.07-4.11-1.45-4.11h-2.74c-.5,0-1.35-.05-1.71.38-.71.82-.6,3-.28,2.56,0,0,1.07-.3,1.76,0,.88.26.23,3.01.23,3.61,0,.8-.77,1.54-1.68,1.54-.84,0-1.61-.66-1.68-1.48,0-1.98-1.52-3.68-3.35-4.26,0,0-7.18-2.21-8.71-4.48,0,0-.53,6.02,6.79,8.68,0,0-5.18.44-7.1-.82.08,0,.99,5.15,7.94,5.38,0,0-4.58,1.54-6.26,1.32,0,0,3.28,3.75,8.17,2.65,0,0-2.68,2.43-5.73,1.91,0,0,3.44,3.08,8.1.51,0,0-.99,2.35-3.21,3.1,0,0,2.82,1.83,6.03-.81.41-.46,1.71.06.41,1.06-1.75,1.33-4.24,1.65-5.29,3.86l1.29.25c-1.45,1.46-3.38,3.52-3.59,3.57,0,0-.29-.38-1.1-.21-.11-.08-.19-.17-.32-.26.92-.31,2.09-.98,1.45-2.17,0,0-1.46,1.54-2.59,1.44,1.56-1.05,2.18-2.8,1.36-4.09-.84-1.32-2.89-1.55-4.58-.51-1.68,1.03-2.38,2.94-1.53,4.26.81,1.26,2.64,1.52,4.34.59-.69,1.01-2.02,1.34-2.59,1.55,0,0,.94,1.8,3.03-.6.14.09.23.2.34.29-.55.44-.79,1.16-.34,1.49,0,0-.23,1.17,1.15,1.09,0,0,.47.75,1.42.32.61,1.63.41,3.15.59,4.03l1.75.07c-.15-.77-.22-3.23-1.62-5.46.27-.24.43-.55.15-.87-.05-.1,2.48-1.67,4.34-2.81l.24,1.19c.65-.86,1.58-1.44,2.66-1.76-1.15,1.57-1.85,3.37-1.44,5.88,0,0,.3-.95,1.84-1.11,0,0-2.14,2.59,1.29,7.58,3.44-5,1.45-7.58,1.45-7.58,1.53.16,1.91,1.11,1.91,1.11.34-2.53-.32-4.35-1.53-5.92,1.1.3,1.99.9,2.68,1.8l.24-1.21c1.84,1.14,4.39,2.74,4.34,2.83-.28.31-.09.64.19.87-1.39,2.23-1.45,4.69-1.62,5.45l1.76-.07c.18-.87-.03-2.38.57-4,.88.38,1.39-.34,1.39-.34,1.37.08,1.15-1.09,1.15-1.09.45-.31.23-1.01-.33-1.45.13-.11.24-.21.38-.32,2.08,2.4,3.02.6,3.02.6-.55-.21-1.88-.54-2.58-1.55,1.69.94,3.53.68,4.34-.59.83-1.32.15-3.23-1.52-4.26Zm-31.24,3.31c-.87-1.31-.84-2.8-.15-3.16.68-.37,1.98.29,2.82,1.61.92,1.24.69,2.35,0,2.72-.68.45-1.79.17-2.67-1.17Zm14.41-23.84c-.46,0-.76-.29-.76-.65,0-.44.3-.73.76-.73.38,0,.68.29.68.73,0,.37-.3.65-.68.65Zm16.59,23.84c-.88,1.34-1.98,1.62-2.67,1.17-.69-.37-.92-1.47,0-2.72.84-1.32,2.14-1.98,2.82-1.61.69.37.72,1.85-.15,3.16Z"/>
          <path class="f" d="m82.53,25.1c-9.32,4.87-20.71,4.85-30.01-.06v53.7c0,6.57,5.42,11.79,12.14,11.79s12.28.91,17.87,4.48c5.59-3.51,11.31-4.48,17.81-4.48s12.2-5.21,12.2-11.79V25.04c-9.35,4.95-20.61,4.9-30.01.06Zm24.14,8.36s.16-1.18.39-1.18c.23-.07.6,1.1.6,1.1.46-.44,1.38.08,1.38.08l-.08.22c-.68-.3-1.3.44-1.22.81,0,.22-.99.29-.99.07,0-.37-.69-1.03-1.37-.74l-.08-.14s.76-.66,1.37-.22Zm.62,1.55c1.83-.11,3.43.88,3.58,2.27.07,1.32-1.14,2.51-2.81,2.76,1.03.37,2.13-.05,2.73-.19,0,0,.22,1.7-2.41,1.15.1,1.38-.77,2.39-1.1,3.76.19-.25.44-.49.77-.72.76-.44,1.68-.58,2.52-.44-.08.67-.54,1.4-1.22,1.84-.67.44-1.44.61-2.18.55.04.64.22,1.38.65,2.24l-1.23.95c-.6-1.17-.83-3.89.16-5.81.62-1.3.74-1.81.67-2.31-.84.3-2.5.7-2.73-.71,0,0,1.86.3,2.73-.29-1.7-.05-3.13-1.04-3.27-2.35-.08-1.4,1.3-2.61,3.14-2.72Zm2.01,20.22l-.08.22c-.69-.3-1.37.36-1.37.73,0,.22-1,.15-1-.08.07-.36-.54-1.1-1.22-.81l-.07-.22s.91-.51,1.36-.07c0,0,.39-1.18.61-1.1.24,0,.39,1.17.39,1.17.61-.44,1.38.15,1.38.15Zm-19.7-25.29c1.39,0,2.49,1.33,2.53,2.99.54-.99.14-2.14.07-2.7,0,0,1.76-.06,1.08,2.38,1.36.05,2.33.93,3.66,1.35-.25-.21-.46-.48-.62-.79-.46-.73-.53-1.61-.3-2.43.76.15,1.45.59,1.83,1.32.4.7.5,1.45.38,2.12.66.02,1.44-.09,2.36-.42l.92,1.25c-1.28.43-4.12.43-6.03-.67-1.21-.66-1.77-.83-2.25-.85.19.8.44,2.49-.96,2.55,0,0,.47-1.86-.15-2.7-.08,1.69-1.27,3-2.75,3s-2.59-1.47-2.52-3.24c0-1.77,1.22-3.16,2.74-3.16Zm-4.19,1.39l.23.08c-.38.66.38,1.24.77,1.24.22,0,.22.89,0,.89-.46,0-1.15.59-.93,1.32h-.22s-.53-.81-.08-1.32c0,0-1.22-.23-1.22-.45s1.3-.44,1.3-.44c-.46-.51.15-1.33.15-1.33Zm-6.49,1.33c.38,0,1.15-.59.76-1.24l.23-.08s.61.82.16,1.33c0,0,1.3.22,1.3.44s-1.22.45-1.22.45c.46.51-.08,1.32-.08,1.32h-.23c.23-.74-.46-1.32-.91-1.32-.23,0-.23-.89,0-.89Zm-14.21,1.11c.94.33,1.7.44,2.36.42-.12-.66,0-1.42.39-2.12.38-.74,1.07-1.17,1.83-1.32.23.82.15,1.69-.31,2.43-.14.31-.36.58-.61.79,1.33-.42,2.29-1.3,3.66-1.35-.68-2.44,1.08-2.38,1.08-2.38-.07.55-.46,1.71.07,2.7.04-1.65,1.14-2.99,2.52-2.99,1.53,0,2.76,1.39,2.76,3.16.07,1.77-1.08,3.24-2.52,3.24s-2.67-1.31-2.75-3c-.62.84-.15,2.7-.15,2.7-1.4-.06-1.16-1.74-.96-2.55-.48.02-1.05.19-2.25.85-1.91,1.1-4.74,1.1-6.03.67l.91-1.25Zm-6.94-.37s.38-1.17.61-1.11c.24,0,.39,1.18.39,1.18.61-.45,1.37.22,1.37.22l-.07.14c-.69-.28-1.38.37-1.38.74-.07.22-.99.15-.99-.07,0-.37-.53-1.1-1.22-.81l-.08-.22s.91-.51,1.37-.07Zm.38,1.61c1.83.11,3.21,1.32,3.13,2.73-.15,1.31-1.58,2.3-3.28,2.35.87.6,2.74.29,2.74.29-.22,1.43-1.9,1.01-2.73.71-.08.5.05,1,.67,2.31.92,1.91.77,4.63.16,5.81l-1.23-.95c.41-.87.59-1.59.61-2.24-.73.06-1.49-.12-2.14-.55-.77-.44-1.15-1.17-1.22-1.84.84-.14,1.75,0,2.52.44.28.2.5.4.68.63-.35-1.33-1.17-2.32-1.04-3.66-2.59.53-2.38-1.16-2.38-1.16.6.14,1.7.55,2.72.18-1.67-.25-2.88-1.44-2.81-2.75.15-1.4,1.75-2.39,3.59-2.28Zm1.7,20.07l-.08.22c-.69-.29-1.29.45-1.22.81,0,.22-.91.29-.98.08,0-.38-.7-1.04-1.38-.74l-.08-.22s.76-.59,1.37-.15c0,0,.15-1.17.38-1.17.23-.08.62,1.1.62,1.1.45-.44,1.37.07,1.37.07Zm-5.65,8.53c.84-.07,1.68.23,2.29.82.47.35.72.82.8,1.29.08-.24.17-.48.29-.71.61-1.3.73-1.81.66-2.3-.84.29-2.5.71-2.73-.72,0,0,2,.32,2.82-.35-1.73.05-3.21-.96-3.36-2.29-.07-1.41,1.3-2.66,3.14-2.8,1.84-.07,3.44.96,3.59,2.36.06,1.35-1.21,2.55-2.94,2.71,1.07.45,2.23,0,2.87-.14,0,0,.2,1.7-2.4,1.16.22,2.29-2.33,3.58-.58,7.23l-1.22.95c-.47-.9-.67-2.74-.32-4.4-.79.02-1.63-.27-2.2-.82-.61-.59-.84-1.32-.69-1.99Zm1.8,14.13l-.16-.14s.39-.96,1.15-.81c0,0-.54-1.1-.31-1.25.23-.15,1.07.73,1.07.73.23-.67,1.22-.67,1.22-.67l.08.22c-.77.15-.92,1.03-.69,1.4.15.14-.69.66-.77.5-.22-.36-1.14-.66-1.6,0Zm10.15,10.96c-.2-.92-.51-1.59-.88-2.12-.58.45-1.3.73-2.02.8-.92.08-1.76-.28-2.22-.81.53-.58,1.38-1.03,2.29-1.03.36-.03.7,0,1.01.08-1.1-.85-2.4-1.16-3.19-2.32-1.76,1.9-2.63.41-2.63.41.57-.21,1.81-.55,2.41-1.55-1.51.94-3.27.71-4.09-.44-.76-1.18-.15-2.95,1.38-3.91,1.52-.95,3.43-.81,4.2.37.8,1.13.27,2.8-1.2,3.78,1.06.1,2.5-1.28,2.5-1.28.69,1.21-.92,1.85-1.74,2.09.25.45.68.79,1.97,1.44,1.99.96,3.52,3.23,3.82,4.55l-1.61-.07Zm9.66-1.03c-.46-.08-1.3.37-1.14,1.1h-.23s-.38-.87.23-1.32c0,0-1.22-.51-1.15-.73.08-.15,1.31-.15,1.31-.15-.38-.66.37-1.32.37-1.32l.24.15c-.46.59.15,1.32.53,1.4.23.08,0,.96-.16.88Zm14.13,1.98c-.82-.51-1.54-.78-2.2-.89-.04.7-.33,1.42-.85,1.93-.61.66-1.38.96-2.13.96,0-.81.3-1.69.84-2.36.23-.24.51-.42.8-.55-1.4.15-2.57.8-3.95.53.16,2.52-1.58,2.01-1.58,2.01.2-.53.85-1.55.57-2.62-.37,1.6-1.77,2.68-3.17,2.4-1.44-.36-2.29-1.98-1.98-3.67.38-1.76,1.83-2.94,3.28-2.65,1.38.35,2.2,1.81,1.97,3.46.78-.68.71-2.51.71-2.51,1.43.39.79,1.88.39,2.61.52.13,1.07.11,2.43-.26,2.13-.66,4.95-.14,6.1.59l-1.22,1.03Zm-7.47-5.71c-3.84-2.41-7.48-2.89-11.9-2.89s-7.84-3.51-7.84-7.79v-36.12c4.81,2.58,15.36.85,19.98-1.56,4.67,2.43,15.1,4.09,19.98,1.56v36.12c0,4.28-3.87,7.79-8.4,7.79s-8.01.5-11.83,2.89Zm26.12-2.22c-.77,1.14-2.49,1.37-4.05.5.62.95,1.82,1.28,2.36,1.48,0,0-.88,1.49-2.62-.41-.8,1.15-2.09,1.47-3.2,2.32.31-.08.65-.11,1.01-.08.92,0,1.68.45,2.29,1.03-.53.52-1.3.88-2.2.81-.8-.07-1.48-.35-2.03-.8-.37.54-.68,1.21-.87,2.12l-1.61.07c.31-1.32,1.84-3.6,3.82-4.55,1.3-.65,1.72-.99,1.97-1.44-.84-.24-2.43-.88-1.75-2.09,0,0,1.37,1.32,2.43,1.28-1.41-.97-1.94-2.65-1.13-3.78.76-1.18,2.68-1.32,4.21-.37,1.52.95,2.16,2.74,1.37,3.91Zm.77-3.98c-.38-.66-1.3-.36-1.53,0-.07.16-.92-.36-.85-.51.24-.36.16-1.25-.6-1.39l.07-.22s.99,0,1.22.67c0,0,.84-.88,1.07-.73.16.15-.31,1.25-.31,1.25.76-.15,1.15.81,1.15.81l-.22.14Zm1.15-12.13c-.56.54-1.38.83-2.17.81.37,1.67.13,3.51-.35,4.41l-1.21-.95c1.82-3.65-.74-4.95-.57-7.24-2.61.55-2.33-1.15-2.33-1.15.56.14,1.71.59,2.78.14-1.73-.16-3.01-1.36-2.94-2.71.16-1.4,1.75-2.43,3.59-2.36,1.83.15,3.2,1.4,3.12,2.8-.14,1.33-1.62,2.34-3.35,2.29.82.67,2.82.35,2.82.35-.23,1.43-1.9,1.01-2.73.72-.07.49.06,1,.68,2.3.11.23.21.45.3.7.09-.47.35-.94.77-1.29.61-.59,1.44-.89,2.36-.82.08.67-.15,1.4-.76,2Z"/>
        </g>
        <g>
          <g>
            <path class="f" d="m52.55,109.28c-.33.29-.72.45-1.18.45-.62,0-1.13-.23-1.52-.69-.39-.45-.58-1.22-.58-2.3,0-1.01.2-1.75.6-2.19.39-.46.9-.68,1.54-.68.46,0,.85.11,1.17.38.31.26.53.61.63,1.05l1.71-.41c-.21-.68-.5-1.21-.88-1.57-.65-.61-1.5-.92-2.55-.92-1.2,0-2.16.39-2.89,1.18-.74.79-1.1,1.88-1.1,3.31,0,1.34.36,2.4,1.1,3.17.73.78,1.67,1.16,2.8,1.16.91,0,1.67-.22,2.26-.67.6-.46,1.02-1.15,1.29-2.09l-1.68-.53c-.14.63-.39,1.08-.72,1.37Z"/>
            <path class="f" d="m57.48,109.12h3.41l.75,1.94h1.88l-3.42-8.53h-1.83l-3.32,8.53h1.82l.71-1.94Zm1.68-4.59l1.18,3.15h-2.34l1.16-3.15Z"/>
            <polygon class="f" points="70.14 109.61 65.85 109.61 65.85 102.6 64.13 102.6 64.13 111.05 70.14 111.05 70.14 109.61"/>
            <path class="f" d="m75.62,102.69c-.38-.1-.93-.16-1.63-.16h-3.15v8.52h3.25c.63,0,1.14-.05,1.52-.18.51-.16.91-.38,1.21-.67.39-.39.71-.88.92-1.51.17-.52.26-1.12.26-1.82,0-.8-.1-1.46-.29-2.02-.18-.54-.45-1-.81-1.37-.36-.38-.79-.66-1.28-.79Zm.43,5.66c-.11.39-.27.65-.46.83-.19.17-.42.28-.7.35-.21.05-.56.08-1.03.08h-1.3v-5.64h.78c.7,0,1.17.03,1.42.08.32.08.58.21.79.4.21.19.37.48.49.82.11.36.18.86.18,1.52s-.06,1.18-.18,1.56Z"/>
            <polygon class="f" points="80 100.01 79.2 101.74 80.24 101.74 81.83 100.01 80 100.01"/>
            <rect class="f" x="78.77" y="102.53" width="1.73" height="8.52"/>
            <path class="f" d="m84.62,102.53l-3.32,8.53h1.83l.71-1.94h3.41l.75,1.94h1.88l-3.41-8.53h-1.84Zm-.25,5.14l1.15-3.15,1.18,3.15h-2.33Z"/>
            <polygon class="f" points="102.14 102.53 99.55 102.53 98.02 108.34 96.47 102.53 93.89 102.53 93.89 111.05 95.49 111.05 95.49 104.35 97.18 111.05 98.84 111.05 100.53 104.35 100.53 111.05 102.14 111.05 102.14 102.53"/>
            <path class="f" d="m111.35,111.05l-3.42-8.53h-1.84l-3.32,8.53h1.83l.72-1.94h3.41l.76,1.94h1.87Zm-5.52-3.38l1.16-3.15,1.18,3.15h-2.34Z"/>
            <polygon class="f" points="109.22 102.53 112.35 107.47 112.35 111.05 114.08 111.05 114.08 107.48 117.21 102.53 115.23 102.53 113.27 105.9 111.24 102.53 109.22 102.53"/>
            <path class="f" d="m116.48,106.84c0,1.35.37,2.43,1.12,3.19.75.78,1.75,1.16,3.04,1.16s2.25-.38,3-1.17c.75-.76,1.12-1.85,1.12-3.23s-.37-2.47-1.13-3.25c-.76-.77-1.77-1.16-3.02-1.16-.7,0-1.31.11-1.83.34-.41.16-.78.42-1.11.77-.33.34-.59.73-.79,1.17-.25.59-.39,1.32-.39,2.19Zm2.43-2.26c.44-.48,1.02-.73,1.73-.73s1.27.24,1.71.71c.43.49.64,1.21.64,2.19s-.21,1.73-.66,2.21c-.44.5-1,.75-1.68.75s-1.27-.25-1.71-.75c-.45-.49-.67-1.23-.67-2.19s.21-1.72.65-2.2Z"/>
            <path class="f" d="m131.97,109.39c-.4-.66-.73-1.13-.98-1.38-.24-.26-.54-.5-.91-.71.74-.1,1.3-.37,1.68-.79.37-.42.56-.94.56-1.58,0-.51-.12-.96-.37-1.35-.24-.39-.58-.67-.99-.82-.42-.16-1.08-.23-2-.23h-3.62v8.52h1.73v-3.55h.35c.4,0,.68.04.87.09.18.07.35.18.52.35.15.18.47.59.91,1.26l1.23,1.85h2.08l-1.06-1.66Zm-3.62-3.25h-1.28v-2.16h1.34c.7,0,1.13,0,1.25.03.29.05.5.16.64.33.16.18.23.41.23.7,0,.24-.05.47-.17.64-.12.17-.27.29-.49.36-.2.07-.71.1-1.54.1Z"/>
            <rect class="f" x="115.83" y="123.23" width="1.61" height="1.61"/>
            <path class="f" d="m44.5,117.36c-.35-.36-.77-.62-1.26-.77-.37-.1-.89-.16-1.6-.16h-3.09v8.38h3.19c.63,0,1.12-.06,1.5-.18.49-.15.89-.38,1.19-.67.39-.37.69-.86.9-1.47.16-.51.25-1.1.25-1.79,0-.78-.09-1.44-.27-1.97-.18-.54-.45-1-.8-1.36Zm-.84,4.8c-.11.37-.26.64-.44.8-.18.17-.41.29-.68.35-.21.05-.55.08-1.03.08h-1.27v-5.53h.76c.69,0,1.15.03,1.4.08.31.06.58.19.78.38.21.19.37.47.48.82.12.34.18.84.18,1.49s-.06,1.16-.18,1.54Z"/>
            <polygon class="f" points="47.84 121.13 52.04 121.13 52.04 119.71 47.84 119.71 47.84 117.86 52.36 117.86 52.36 116.43 46.14 116.43 46.14 124.82 52.53 124.82 52.53 123.39 47.84 123.39 47.84 121.13"/>
            <path class="f" d="m62.06,120.36c.35-.16.65-.41.86-.74.2-.32.31-.69.31-1.08,0-.36-.08-.69-.26-.98-.17-.29-.38-.52-.64-.69-.26-.18-.55-.29-.87-.34-.33-.06-.82-.09-1.48-.09h-3.36v8.37h2.86c1.07,0,1.76-.02,2.04-.05.45-.05.83-.19,1.14-.4.3-.23.55-.51.72-.87.18-.37.27-.74.27-1.12,0-.48-.13-.9-.41-1.26-.27-.35-.66-.61-1.17-.77Zm-3.74-2.53h.96c.8,0,1.29.02,1.45.04.28.04.5.13.64.28.14.17.21.38.21.64,0,.28-.08.49-.25.65-.17.15-.39.27-.68.3-.16.02-.57.03-1.23.03h-1.11v-1.94Zm3.35,5.19c-.16.17-.37.28-.62.33-.17.03-.56.05-1.16.05h-1.57v-2.23h1.36c.77,0,1.28.03,1.51.11.23.08.41.2.53.37.12.18.18.4.18.65,0,.29-.08.54-.23.71Z"/>
            <path class="f" d="m68.3,116.29c-.69,0-1.29.11-1.81.33-.39.17-.76.42-1.08.75-.33.35-.59.73-.79,1.16-.25.58-.37,1.29-.37,2.14,0,1.33.36,2.39,1.11,3.15.73.75,1.72,1.15,2.97,1.15s2.22-.39,2.96-1.16c.74-.76,1.1-1.82,1.1-3.17s-.37-2.42-1.11-3.19c-.75-.77-1.73-1.15-2.97-1.15Zm1.68,6.48c-.43.49-.99.73-1.66.73s-1.23-.24-1.67-.74c-.44-.49-.66-1.2-.66-2.15s.21-1.67.64-2.15.99-.72,1.69-.72,1.26.23,1.68.7c.42.47.64,1.19.64,2.15s-.23,1.69-.66,2.18Z"/>
            <path class="f" d="m77.34,121.75h1.93v1.04c-.25.21-.55.37-.91.51-.35.13-.71.21-1.06.21-.72,0-1.29-.25-1.74-.75-.44-.49-.66-1.23-.66-2.22,0-.93.22-1.62.66-2.08.43-.48,1.02-.7,1.76-.7.49,0,.89.11,1.22.36.32.23.55.55.67.97l1.68-.31c-.17-.78-.54-1.38-1.12-1.82-.6-.42-1.4-.64-2.45-.64-.8,0-1.47.14-2.01.41-.7.37-1.23.88-1.61,1.57-.36.67-.55,1.44-.55,2.32,0,.8.18,1.54.5,2.23.33.69.82,1.22,1.48,1.57.65.37,1.41.56,2.29.56.69,0,1.37-.14,2.04-.4.68-.26,1.19-.57,1.54-.91v-3.33h-3.64v1.43Z"/>
            <path class="f" d="m85.77,116.29c-.69,0-1.29.11-1.81.33-.39.17-.76.42-1.09.75-.32.35-.59.73-.78,1.16-.26.58-.38,1.29-.38,2.14,0,1.33.36,2.39,1.1,3.15.73.75,1.73,1.15,2.98,1.15s2.21-.39,2.95-1.16c.73-.76,1.1-1.82,1.1-3.17s-.37-2.42-1.1-3.19c-.75-.77-1.75-1.15-2.97-1.15Zm1.69,6.48c-.45.49-1,.73-1.68.73s-1.23-.24-1.67-.74c-.44-.49-.65-1.2-.65-2.15s.21-1.67.64-2.15c.43-.48.99-.72,1.68-.72s1.27.23,1.69.7c.43.47.63,1.19.63,2.15s-.21,1.7-.65,2.18Z"/>
            <polygon class="f" points="96.54 116.43 89.88 116.43 89.88 117.86 92.36 117.86 92.36 124.82 94.06 124.82 94.06 117.86 96.54 117.86 96.54 116.43"/>
            <path class="f" d="m98.97,116.43l-3.27,8.39h1.8l.69-1.91h3.36l.73,1.91h1.85l-3.36-8.39h-1.8Zm-.25,5.05l1.12-3.09,1.17,3.09h-2.28Z"/>
            <polygon class="f" points="99.26 115.67 100.28 115.67 101.85 113.96 100.05 113.96 99.26 115.67"/>
            <path class="f" d="m114.75,117.36c-.35-.37-.77-.62-1.27-.77-.36-.1-.9-.16-1.59-.16h-3.11v8.38h3.19c.62,0,1.13-.06,1.51-.18.49-.15.89-.38,1.18-.67.39-.37.69-.86.91-1.47.17-.51.25-1.1.25-1.79,0-.77-.08-1.44-.27-1.97-.19-.54-.45-1-.8-1.36Zm-.84,4.8c-.12.37-.27.64-.44.8-.19.17-.41.29-.69.35-.21.05-.55.08-1.03.08h-1.26v-5.53h.76c.69,0,1.16.03,1.39.08.32.06.58.19.77.38.22.19.38.47.5.82.11.34.16.84.16,1.49s-.05,1.17-.16,1.54Z"/>
            <path class="f" d="m122.55,123.08c-.32.28-.71.43-1.16.43-.62,0-1.11-.23-1.49-.67-.39-.45-.58-1.2-.58-2.26,0-1,.2-1.72.58-2.16.39-.45.89-.67,1.52-.67.44,0,.83.13,1.14.38.31.25.53.6.63,1.03l1.67-.4c-.19-.66-.48-1.19-.86-1.54-.64-.61-1.48-.92-2.51-.92-1.17,0-2.12.39-2.84,1.16-.73.77-1.09,1.85-1.09,3.25,0,1.32.36,2.36,1.09,3.12.71.75,1.62,1.15,2.74,1.15.91,0,1.65-.23,2.23-.67.58-.45,1-1.13,1.25-2.05l-1.64-.53c-.14.62-.37,1.07-.7,1.36Z"/>
            <rect class="f" x="125.16" y="123.25" width="1.61" height="1.6"/>
          </g>
          <g>
            <path class="f" d="m40.54,111.05l-3.41-8.53h-1.84l-3.32,8.53h1.83l.71-1.94h3.42l.74,1.94h1.87Zm-5.5-3.38l1.15-3.15,1.18,3.15h-2.33Z"/>
            <polygon class="f" points="47.01 109.61 42.73 109.61 42.73 102.6 41 102.6 41 111.05 47.01 111.05 47.01 109.61"/>
          </g>
        </g>
      </g>
      <rect class="e" width="165" height="150"/>
    </g>
  </g>
</svg>