<?xml version="1.0" encoding="UTF-8"?>
<svg id="b" data-name="Capa 2" xmlns="http://www.w3.org/2000/svg" viewBox="0 0 150 150">
  <defs>
    <style>
      .g {
        fill: none;
      }

      .g, .h {
        stroke-width: 0px;
      }

      .h {
        fill: #ffddae;
      }
    </style>
  </defs>
  <g id="c" data-name="Capa 1">
    <g id="d" data-name="logo_BTMQC">
      <rect class="g" width="150" height="150"/>
      <path id="e" data-name="borde" class="h" d="m120.68,120H31.54c-.85,0-1.54-.69-1.54-1.54V31.54c0-.85.69-1.54,1.54-1.54h89.14c.85,0,1.54.69,1.54,1.54v56.6l17.78,12.67c.55.39.78,1.09.57,1.73s-.8,1.07-1.47,1.07h-16.89v14.85c0,.85-.69,1.54-1.54,1.54Zm-87.59-3.09h86.05v-14.85c0-.85.69-1.54,1.54-1.54h13.61l-14.5-10.33c-.41-.29-.65-.76-.65-1.26v-55.85H33.09v83.83Z"/>
      <g id="f" data-name="letras">
        <g>
          <path class="h" d="m41.56,104.93c.07,1.21.43,2.14,1.08,2.81.65.67,1.5,1,2.57,1,1.14,0,2.22-.32,3.27-.95v3.3c-1.06.58-2.34.86-3.84.86-2.05,0-3.75-.65-5.08-1.96-1.33-1.31-2-2.99-2-5.07.04-2.05.7-3.75,2-5.09,1.3-1.34,3.07-2.01,5.32-2.01,1.39,0,2.58.26,3.59.78v3.38c-.95-.59-2.02-.89-3.19-.89-1.1,0-1.99.33-2.68.99-.68.66-1.04,1.61-1.05,2.85Z"/>
          <path class="h" d="m56.96,111.96c-2.14,0-3.8-.64-4.97-1.93-1.17-1.29-1.76-2.94-1.76-4.96s.61-3.84,1.84-5.2c1.22-1.36,2.86-2.04,4.89-2.04s3.77.66,4.95,1.97c1.17,1.32,1.76,2.99,1.76,5.03s-.59,3.78-1.77,5.12c-1.18,1.34-2.82,2.01-4.93,2.01Zm-.03-11.03c-.86,0-1.51.37-1.95,1.11-.43.74-.65,1.69-.65,2.86s.22,2.13.66,2.88c.44.75,1.1,1.12,1.99,1.12s1.51-.36,1.93-1.09c.42-.73.64-1.68.64-2.85,0-2.68-.87-4.03-2.62-4.03Z"/>
          <path class="h" d="m70.17,98.04v2.32c.34-.76.87-1.36,1.58-1.8.71-.44,1.56-.66,2.55-.66,1.4,0,2.5.42,3.3,1.26.79.84,1.19,2.07,1.19,3.69v8.89h-3.95v-8.16c0-.81-.19-1.43-.57-1.85-.38-.42-.91-.64-1.59-.64-.72,0-1.32.28-1.8.85s-.72,1.42-.72,2.55v7.24h-3.95v-13.7h3.95Z"/>
          <path class="h" d="m86.47,100.93v6.3c0,.49.14.86.42,1.11.28.25.64.38,1.09.38.72,0,1.36-.18,1.92-.54v3.27c-.67.29-1.57.43-2.7.43-3.12,0-4.67-1.56-4.67-4.67v-6.27h-1.97v-2.89h1.97v-3.24h3.95v3.24h3.19v2.89h-3.19Z"/>
          <path class="h" d="m92.71,102.26v-3.54c1.08-.61,2.64-.92,4.67-.92s3.4.42,4.35,1.26c.95.84,1.43,2.14,1.43,3.9v8.78h-3.86v-1.68c-.58,1.17-1.71,1.76-3.4,1.76-1.33,0-2.37-.38-3.12-1.13-.75-.76-1.12-1.7-1.12-2.84,0-1.31.48-2.34,1.45-3.07.96-.73,2.39-1.09,4.28-1.09h1.73v-.95c0-1.15-.77-1.73-2.3-1.73s-2.85.41-4.11,1.24Zm6.4,3.86h-1.27c-.67,0-1.18.14-1.54.43-.36.29-.54.66-.54,1.11,0,.92.53,1.38,1.59,1.38.56,0,.99-.17,1.3-.51.31-.34.46-.81.46-1.41v-1Z"/>
          <path class="h" d="m110.19,98.04v2.54c.25-.79.67-1.43,1.26-1.91.59-.48,1.27-.72,2.04-.72.43,0,.77.04,1.03.11v3.73c-.43-.2-.93-.3-1.49-.3-.85,0-1.53.31-2.05.93-.52.62-.78,1.45-.78,2.47v6.84h-3.94l.03-13.7h3.92Z"/>
        </g>
        <g>
          <path class="h" d="m37.46,65.96h6.35c1.79,0,3.16.42,4.1,1.27.94.85,1.41,1.93,1.41,3.24,0,.86-.23,1.61-.68,2.25-.45.65-1.04,1.08-1.77,1.31,1.89.57,2.84,1.84,2.84,3.83,0,1.29-.46,2.36-1.39,3.19-.93.83-2.19,1.25-3.79,1.25h-7.06v-16.34Zm3.73,2.98v3.66h1.38c.97,0,1.7-.18,2.19-.53.49-.36.74-.82.74-1.41,0-1.15-.78-1.72-2.33-1.72h-1.99Zm0,10.38h1.96c1.84,0,2.76-.63,2.76-1.89s-.91-1.89-2.74-1.89h-1.99v3.78Z"/>
          <path class="h" d="m57.44,82.5c-1.92,0-3.41-.58-4.46-1.73-1.05-1.16-1.58-2.64-1.58-4.45s.55-3.45,1.65-4.67c1.1-1.22,2.56-1.83,4.39-1.83s3.39.59,4.44,1.77c1.05,1.18,1.58,2.68,1.58,4.51s-.53,3.39-1.59,4.59c-1.06,1.2-2.53,1.81-4.42,1.81Zm-.02-9.89c-.78,0-1.36.33-1.75.99-.39.66-.58,1.52-.58,2.57s.2,1.91.59,2.58c.4.67.99,1.01,1.78,1.01s1.35-.33,1.73-.98c.38-.65.57-1.51.57-2.56,0-2.41-.78-3.61-2.35-3.61Z"/>
          <path class="h" d="m73.63,70.01h3.51v11.1c0,1.97-.59,3.45-1.77,4.45s-2.66,1.49-4.44,1.49-3.24-.31-4.53-.92v-3.61c1.13.9,2.52,1.36,4.17,1.36,1.07,0,1.84-.23,2.33-.68.48-.45.73-1.16.73-2.13v-.82c-.71,1.1-1.84,1.65-3.39,1.65-1.36,0-2.53-.5-3.5-1.5-.98-1-1.47-2.49-1.47-4.46,0-1.75.47-3.19,1.42-4.33.95-1.14,2.19-1.71,3.72-1.71,1.46,0,2.53.58,3.22,1.75v-1.62Zm-2.42,9.07c.76,0,1.35-.29,1.78-.86.43-.57.64-1.26.64-2.07,0-2.2-.8-3.3-2.4-3.3-.71,0-1.27.28-1.67.82-.4.55-.61,1.31-.61,2.28,0,1.02.19,1.79.58,2.33.39.53.95.8,1.67.8Z"/>
          <path class="h" d="m85.36,82.5c-1.92,0-3.41-.58-4.46-1.73-1.05-1.16-1.58-2.64-1.58-4.45s.55-3.45,1.65-4.67c1.1-1.22,2.56-1.83,4.39-1.83s3.39.59,4.44,1.77c1.05,1.18,1.58,2.68,1.58,4.51s-.53,3.39-1.59,4.59c-1.06,1.2-2.53,1.81-4.42,1.81Zm-.02-9.89c-.78,0-1.36.33-1.75.99-.39.66-.58,1.52-.58,2.57s.2,1.91.59,2.58c.4.67.99,1.01,1.78,1.01s1.35-.33,1.73-.98c.38-.65.57-1.51.57-2.56,0-2.41-.78-3.61-2.35-3.61Z"/>
          <path class="h" d="m97.78,72.61v5.65c0,.44.12.77.38.99.25.23.58.34.98.34.65,0,1.22-.16,1.72-.48v2.93c-.6.26-1.41.39-2.42.39-2.8,0-4.19-1.4-4.19-4.19v-5.62h-1.77v-2.59h1.77v-2.91h3.54v2.91h2.86v2.59h-2.86Z"/>
          <path class="h" d="m103.38,73.79v-3.18c.97-.55,2.37-.82,4.19-.82s3.05.38,3.9,1.13,1.28,1.92,1.28,3.5v7.88h-3.47v-1.5c-.52,1.05-1.54,1.58-3.05,1.58-1.2,0-2.13-.34-2.8-1.02-.67-.68-1.01-1.53-1.01-2.55,0-1.18.43-2.1,1.3-2.75.86-.65,2.15-.98,3.84-.98h1.55v-.85c0-1.03-.69-1.55-2.06-1.55s-2.55.37-3.69,1.12Zm5.75,3.47h-1.14c-.6,0-1.06.13-1.38.39-.32.26-.48.59-.48.99,0,.82.48,1.24,1.43,1.24.5,0,.89-.15,1.16-.46.27-.31.41-.73.41-1.26v-.9Zm2.79-12.68l-2.69,4.29h-2.93l2.09-4.29h3.54Z"/>
        </g>
        <g>
          <path class="h" d="m38.84,89.36v2.43c0,.19.05.33.16.43.11.1.25.15.42.15.28,0,.52-.07.74-.21v1.26c-.26.11-.6.17-1.04.17-1.2,0-1.8-.6-1.8-1.8v-2.42h-.76v-1.11h.76v-1.25h1.52v1.25h1.23v1.11h-1.23Z"/>
          <path class="h" d="m41.29,87.34c-.17-.17-.26-.38-.26-.62s.09-.45.26-.62c.17-.17.38-.26.63-.26s.45.09.62.26c.17.17.26.38.26.62s-.09.45-.26.62c-.17.17-.38.26-.62.26s-.45-.09-.63-.26Zm-.14,6.19v-5.28h1.52v5.28h-1.52Z"/>
          <path class="h" d="m48.12,91.96v1.27c-.36.24-.91.35-1.66.35-.87,0-1.54-.25-2.03-.76-.48-.5-.72-1.15-.72-1.94,0-.84.23-1.5.7-1.97.47-.48,1.05-.71,1.73-.71s1.27.21,1.68.62c.41.41.61,1.03.61,1.85,0,.16-.03.43-.08.82h-3.1c.1.29.28.52.54.68.26.16.57.24.93.24.53,0,1-.15,1.4-.45Zm-1.09-1.55v-.12c-.05-.62-.32-.93-.81-.93-.24,0-.46.09-.65.27-.19.18-.31.44-.37.79h1.83Z"/>
          <path class="h" d="m51.05,88.25v.9c.13-.29.33-.52.61-.69.27-.17.6-.26.98-.26.54,0,.97.16,1.27.48.31.32.46.8.46,1.42v3.43h-1.52v-3.15c0-.31-.07-.55-.22-.71-.15-.16-.35-.24-.61-.24-.28,0-.51.11-.69.33-.18.22-.28.55-.28.98v2.79h-1.52v-5.28h1.52Z"/>
          <path class="h" d="m59.72,91.96v1.27c-.36.24-.91.35-1.66.35-.87,0-1.54-.25-2.03-.76-.48-.5-.72-1.15-.72-1.94,0-.84.23-1.5.7-1.97.47-.48,1.05-.71,1.73-.71s1.27.21,1.68.62c.41.41.61,1.03.61,1.85,0,.16-.03.43-.08.82h-3.1c.1.29.28.52.54.68.26.16.57.24.93.24.53,0,1-.15,1.4-.45Zm-1.09-1.55v-.12c-.05-.62-.32-.93-.81-.93-.24,0-.46.09-.65.27-.19.18-.31.44-.38.79h1.83Z"/>
          <path class="h" d="m65.25,88.25v.82c.29-.58.79-.88,1.49-.88.74,0,1.24.33,1.48,1,.12-.31.32-.56.59-.73.28-.18.6-.27.98-.27.52,0,.93.17,1.23.49.3.33.45.81.45,1.45v3.39h-1.52v-3.14c0-.3-.06-.53-.18-.71-.12-.17-.29-.26-.51-.26-.24,0-.45.1-.63.29-.18.19-.28.53-.28,1.03v2.79h-1.52v-3.14c0-.3-.06-.53-.18-.71-.12-.17-.29-.26-.51-.26-.24,0-.45.1-.63.29-.18.19-.28.53-.28,1.03v2.79h-1.52v-5.28h1.52Z"/>
          <path class="h" d="m75.94,88.25h1.52v5.28h-1.52v-.84c-.28.59-.81.89-1.6.89-.54,0-.96-.15-1.27-.45-.3-.3-.45-.75-.45-1.34v-3.53h1.52v3.19c0,.62.27.93.81.93.66,0,.99-.44.99-1.32v-2.79Z"/>
          <path class="h" d="m80,90.91c.03.47.17.83.42,1.08.25.26.58.39.99.39.44,0,.86-.12,1.26-.36v1.27c-.41.22-.9.33-1.48.33-.79,0-1.44-.25-1.96-.76-.51-.5-.77-1.15-.77-1.95.01-.79.27-1.45.77-1.96.5-.52,1.18-.78,2.05-.78.53,0,1,.1,1.39.3v1.3c-.37-.23-.78-.34-1.23-.34-.42,0-.77.13-1.03.38-.26.25-.4.62-.41,1.1Z"/>
          <path class="h" d="m85.12,86.17v2.98c.27-.63.8-.95,1.58-.95.51,0,.93.16,1.26.49.32.33.48.82.48,1.48v3.36h-1.52v-3.13c0-.31-.08-.55-.23-.72-.15-.17-.35-.26-.59-.26-.1,0-.2.02-.3.05-.09.03-.2.09-.31.17-.11.08-.2.22-.27.41-.07.19-.1.42-.1.69v2.79h-1.52v-7.36h1.52Z"/>
          <path class="h" d="m91.98,93.61c-.83,0-1.47-.25-1.92-.74-.45-.5-.68-1.13-.68-1.91s.24-1.48.71-2.01c.47-.52,1.1-.79,1.89-.79s1.45.25,1.91.76c.45.51.68,1.15.68,1.94s-.23,1.46-.68,1.97c-.46.52-1.09.78-1.9.78Zm-.01-4.25c-.33,0-.58.14-.75.43-.17.28-.25.65-.25,1.1s.08.82.26,1.11c.17.29.43.43.77.43s.58-.14.74-.42.24-.65.24-1.1c0-1.03-.34-1.55-1.01-1.55Z"/>
          <path class="h" d="m101.75,88.25h1.52v7.23h-1.52v-2.77c-.35.59-.88.89-1.58.89s-1.26-.26-1.67-.77c-.4-.51-.6-1.16-.6-1.95,0-.83.21-1.48.62-1.96.42-.48.97-.72,1.66-.72s1.21.29,1.57.88v-.81Zm-1.17,4.07c.35,0,.63-.14.84-.41.22-.27.32-.63.32-1.08s-.12-.78-.35-1.02c-.23-.24-.51-.36-.83-.36s-.59.13-.81.39c-.22.26-.33.61-.33,1.07,0,.42.11.77.33,1.03.22.26.49.39.81.39Z"/>
          <path class="h" d="m107.79,88.25h1.52v5.28h-1.52v-.84c-.28.59-.81.89-1.6.89-.54,0-.96-.15-1.27-.45-.3-.3-.45-.75-.45-1.34v-3.53h1.52v3.19c0,.62.27.93.81.93.66,0,.99-.44.99-1.32v-2.79Z"/>
          <path class="h" d="m114.7,91.96v1.27c-.36.24-.91.35-1.66.35-.87,0-1.54-.25-2.03-.76-.48-.5-.72-1.15-.72-1.94,0-.84.23-1.5.7-1.97.47-.48,1.05-.71,1.73-.71s1.27.21,1.68.62c.41.41.61,1.03.61,1.85,0,.16-.03.43-.08.82h-3.1c.1.29.28.52.54.68.26.16.57.24.93.24.53,0,1-.15,1.4-.45Zm-1.09-1.55v-.12c-.05-.62-.32-.93-.81-.93-.24,0-.46.09-.65.27-.19.18-.31.44-.38.79h1.83Z"/>
        </g>
      </g>
    </g>
  </g>
</svg>