<?xml version="1.0" encoding="UTF-8"?>
<svg id="b" data-name="Capa 2" xmlns="http://www.w3.org/2000/svg" viewBox="0 0 150 150">
  <defs>
    <style>
      .e {
        fill: none;
      }

      .e, .f {
        stroke-width: 0px;
      }

      .f {
        fill: #ffddae;
      }
    </style>
  </defs>
  <g id="c" data-name="Capa 1">
    <g id="d" data-name="logo_REDGSF">
      <rect class="e" width="150" height="150"/>
      <path class="f" d="m121.93,95.62l-25.58-25.96c-1.68-1.7-2.02-3.59-.17-5.53l13.68-14.4,2.76,2.8-13.33,14.04,9.95,10.1,11.14-11.72,2.76,2.79-11.14,11.73,13.16,12.97-3.23,3.19Z"/>
      <path class="f" d="m73.19,125.64c-1.97-.63-3.66-1.54-5.08-2.98-1.43-1.44-2.3-3.13-2.95-5.15l-2.82-9.18c-1.25-4.15-.74-7.63,2.1-10.6l8.11-8.51,2.73,2.75-7.81,8.19c-1.94,2.05-2.11,4.35-1.31,7.01l2.87,9.23c.44,1.4,1.04,2.32,1.95,3.24.91.93,1.86,1.56,3.23,2l9,2.78c2.72.82,4.87.76,6.65-1.12l4.43-4.64c1.52-1.6,1.42-3.53-.45-5.41l-5.61-5.69-6.02,6.32-2.69-2.73,8.93-9.36,8.46,8.56c3.25,3.28,3.25,7.68.18,10.91l-4.54,4.76c-3,3.14-6.47,3.54-10.41,2.36l-8.96-2.74Z"/>
      <path class="f" d="m114.66,93.98l1.01,3.24c.89,2.87.28,4.68-1.51,6.59l-11.17,11.91-2.73-2.81,10.9-11.62c.81-.87.92-1.57.6-2.71l-.92-3.17c-.21-.7-.52-1.35-.97-1.79l-23.68,1.82c-2.67.19-4.01.2-5.33-1.15-.67-.69-1.03-1.64-1.48-3.15l-.97-3.27c-.85-2.82-.24-4.57,1.55-6.47l10.28-10.95,2.74,2.81-10,10.66c-.82.87-.97,1.53-.64,2.68l.93,3.16c.2.62.57,1.39.88,1.72l23.65-1.86c2.44-.19,3.89-.33,5.32,1.15.67.69,1.12,1.72,1.57,3.23"/>
      <path class="f" d="m46.81,55.5l14.97-15.79-1.13-1.14-15.17,16.08c-.69.71-.57,1.38-.02,1.91l25.34,25.8c.54.55,1.68.32,2.37-.39l14.79-15.57-1.02-1.07-14.98,15.83-12.06-12.25,12.66-13.38-1.07-1.08-12.63,13.33-12.05-12.28Z"/>
      <path class="f" d="m75.46,23.12l-11.49,11.92,11.93,11.74,15.54,16.08,11.21-12.06c2.73-2.95,2.41-7.51-.88-10.8l-9.62-9.71-6.28-6.69c-3.3-3.29-7.7-3.45-10.42-.48m8.93.73l17.43,18.05c1.61,1.93,1.6,5.84.18,7.43l-10.6,11.24-25.22-25.43,10.88-11.77c1.34-1.35,5.2-1.62,7.32.48"/>
      <path class="f" d="m37.47,63.11l-12.64,13.34,27.49,27.46.96-1.02-11.31-11.59,7.85-8.28,4.81,1.63,11.42,3.73,1.23-1.21-16.38-5.3,2.59-2.72c2.83-2.98,2.84-7.43.1-10.92l-4.65-4.6c-3.54-3.6-8.38-3.78-11.47-.52m9.81.65l5.25,5.23c2.27,2.31,2.05,6.73.64,8.33l-12.24,12.98-3.21-3.16-10.09-10.12-.03.04-.69-.73,12.32-12.95c1.45-1.43,5.69-1.66,8.04.37"/>
    </g>
  </g>
</svg>