<?xml version="1.0" encoding="UTF-8"?>
<svg id="b" data-name="Capa 2" xmlns="http://www.w3.org/2000/svg" viewBox="0 0 264 150">
  <defs>
    <style>
      .e {
        fill: none;
      }

      .e, .f {
        stroke-width: 0px;
      }

      .f {
        fill: #ffddae;
      }
    </style>
  </defs>
  <g id="c" data-name="Capa 1">
    <g id="d" data-name="logo_IDARTES">
      <rect class="e" width="264" height="150"/>
      <g>
        <g>
          <g>
            <path class="f" d="m54.74,89.3c0-5.51-4.53-10-10.09-10h-12.14v31.92h13.21c5.56,0,10.09-4.49,10.09-10,0-2.45-.93-4.84-2.59-6.67,1-1.57,1.52-3.38,1.52-5.25Zm-14.09-3.05h4c1.72,0,3.13,1.37,3.13,3.05s-1.41,3.05-3.13,3.05h-4v-6.1Zm5.07,18.02h-5.07v-6.11h5.07c1.72,0,3.13,1.38,3.13,3.07s-1.41,3.05-3.13,3.05Z"/>
            <path class="f" d="m73.22,78.72c-8.9,0-16.14,7.49-16.14,16.68s7.24,16.69,16.14,16.69,16.13-7.47,16.13-16.69-7.24-16.68-16.13-16.68Zm0,24.7c-4.11,0-7.46-3.59-7.46-8.02s3.35-8.01,7.46-8.01,7.45,3.6,7.45,8.01-3.34,8.02-7.45,8.02Z"/>
            <path class="f" d="m109.21,100.31h3.79v1.74c-1.41.88-3.08,1.37-4.76,1.37-4.72,0-8.55-3.59-8.55-8.02s3.83-8.01,8.55-8.01c2.23,0,4.35.81,5.94,2.27l.85.77,5.86-6.4-.83-.76c-3.21-2.93-7.41-4.55-11.82-4.55-9.5,0-17.24,7.49-17.24,16.68s7.74,16.69,17.24,16.69c1.62,0,3.21-.22,4.76-.65v.07h8.69v-19.86h-12.48v8.66Z"/>
            <polygon class="f" points="166.23 88.68 166.23 111.51 176.53 111.51 176.53 88.68 186.25 88.68 186.25 78.87 156.47 78.87 156.47 88.68 166.23 88.68"/>
            <polygon class="f" points="231.85 125.18 212.15 72.85 194.46 72.85 179.97 111.44 190.7 111.44 203.28 79.69 221.13 125.18 231.85 125.18"/>
            <path class="f" d="m153.98,87.53l-.02-.03c-2.73-5.22-8.08-8.78-14.22-8.78-8.9,0-16.13,7.49-16.13,16.68s7.23,16.69,16.13,16.69,16.14-7.47,16.14-16.69c0-2.84-.69-5.51-1.91-7.87Zm-14.23,15.89c-4.1,0-7.45-3.59-7.45-8.02s3.34-8.01,7.45-8.01,7.46,3.6,7.46,8.01-3.35,8.02-7.46,8.02Z"/>
          </g>
          <g>
            <polygon class="f" points="216.66 55.89 226.32 51.94 213.46 47.35 205.23 25.34 196.68 41.55 179.25 37.97 191.55 51.28 185.56 67.37 207.2 59.61 223 72.85 216.66 55.89"/>
            <polygon class="f" points="180.64 56.76 184.6 54.23 179.86 53.21 178.5 48.5 176.61 52.52 169.43 51 175.04 56.78 173.33 61.45 178.37 58.21 182.26 61.36 180.64 56.76"/>
            <polygon class="f" points="223.39 32.86 227.53 30.2 222.58 29.16 221.16 24.23 218.76 28.34 211.7 26.85 217.55 32.88 215.76 37.75 221.02 34.37 225.09 37.66 223.39 32.86"/>
          </g>
        </g>
        <g>
          <rect class="f" x="32.15" y="115.63" width="1.34" height="9.98"/>
          <path class="f" d="m35.77,120.38c0-.74-.01-1.34-.06-1.94h1.2l.07,1.19h.03c.37-.69,1.23-1.35,2.46-1.35,1.03,0,2.63.59,2.63,3.05v4.28h-1.36v-4.13c0-1.15-.45-2.12-1.72-2.12-.89,0-1.58.61-1.82,1.33-.06.17-.09.39-.09.61v4.31h-1.36v-5.23Z"/>
          <path class="f" d="m44.13,124.28c.4.25,1.1.52,1.78.52.99,0,1.45-.47,1.45-1.06,0-.62-.39-.97-1.38-1.32-1.34-.46-1.97-1.17-1.97-2.03,0-1.16.97-2.1,2.57-2.1.75,0,1.41.21,1.83.44l-.34.95c-.29-.18-.83-.42-1.52-.42-.8,0-1.25.44-1.25.98,0,.59.44.86,1.42,1.21,1.29.48,1.95,1.1,1.95,2.17,0,1.26-1.02,2.15-2.79,2.15-.82,0-1.57-.19-2.09-.49l.34-.99Z"/>
          <path class="f" d="m52.03,116.39v2.05h1.94v1h-1.94v3.86c0,.89.26,1.39,1.02,1.39.35,0,.62-.04.78-.09l.06.98c-.26.1-.67.17-1.2.17-.63,0-1.14-.19-1.46-.55-.39-.38-.53-1.02-.53-1.87v-3.9h-1.15v-1h1.15v-1.72l1.32-.34Z"/>
          <path class="f" d="m57,116.44c.01.44-.33.79-.87.79-.47,0-.81-.35-.81-.79,0-.47.35-.82.84-.82s.84.35.84.82Zm-1.51,9.17v-7.17h1.35v7.17h-1.35Z"/>
          <path class="f" d="m60.72,116.39v2.05h1.94v1h-1.94v3.86c0,.89.26,1.39,1.01,1.39.36,0,.61-.04.78-.09l.06.98c-.26.1-.68.17-1.2.17-.63,0-1.14-.19-1.46-.55-.38-.38-.52-1.02-.52-1.87v-3.9h-1.15v-1h1.15v-1.72l1.32-.34Z"/>
          <path class="f" d="m70.41,123.66c0,.74.02,1.39.06,1.95h-1.2l-.07-1.17h-.04c-.35.58-1.13,1.33-2.46,1.33-1.17,0-2.57-.61-2.57-3.13v-4.2h1.35v3.97c0,1.36.43,2.28,1.67,2.28.91,0,1.54-.61,1.78-1.18.08-.2.13-.43.13-.67v-4.4h1.35v5.21Z"/>
          <path class="f" d="m74.28,116.39v2.05h1.94v1h-1.94v3.86c0,.89.26,1.39,1.02,1.39.36,0,.62-.04.78-.09l.07.98c-.26.1-.68.17-1.2.17-.63,0-1.14-.19-1.46-.55-.38-.38-.52-1.02-.52-1.87v-3.9h-1.15v-1h1.15v-1.72l1.32-.34Z"/>
          <path class="f" d="m84.41,121.97c0,2.65-1.9,3.8-3.7,3.8-2.02,0-3.57-1.42-3.57-3.68,0-2.41,1.63-3.81,3.69-3.81s3.58,1.49,3.58,3.69Zm-5.9.08c0,1.57.94,2.75,2.26,2.75s2.26-1.17,2.26-2.79c0-1.21-.63-2.75-2.23-2.75s-2.29,1.42-2.29,2.79Z"/>
          <path class="f" d="m89.43,115.77c.82-.12,1.78-.21,2.85-.21,1.92,0,3.3.43,4.2,1.25.92.81,1.46,1.97,1.46,3.57s-.52,2.96-1.5,3.88c-.96.93-2.56,1.43-4.58,1.43-.95,0-1.75-.04-2.43-.11v-9.82Zm1.34,8.82c.35.06.83.08,1.36.08,2.86,0,4.41-1.54,4.41-4.24.02-2.35-1.37-3.85-4.2-3.85-.69,0-1.21.06-1.57.13v7.88Z"/>
          <path class="f" d="m101.14,116.44c.01.44-.32.79-.87.79-.47,0-.82-.35-.82-.79,0-.47.36-.82.85-.82s.83.35.83.82Zm-1.51,9.17v-7.17h1.36v7.17h-1.36Z"/>
          <path class="f" d="m103.04,124.28c.4.25,1.11.52,1.78.52.99,0,1.44-.47,1.44-1.06,0-.62-.38-.97-1.38-1.32-1.34-.46-1.97-1.17-1.97-2.03,0-1.16.97-2.1,2.57-2.1.75,0,1.41.21,1.83.44l-.34.95c-.29-.18-.83-.42-1.52-.42-.8,0-1.25.44-1.25.98,0,.59.45.86,1.41,1.21,1.29.48,1.96,1.1,1.96,2.17,0,1.26-1.02,2.15-2.79,2.15-.82,0-1.57-.19-2.09-.49l.34-.99Z"/>
          <path class="f" d="m110.95,116.39v2.05h1.94v1h-1.94v3.86c0,.89.26,1.39,1.01,1.39.35,0,.61-.04.78-.09l.06.98c-.26.1-.68.17-1.2.17-.63,0-1.14-.19-1.46-.55-.39-.38-.52-1.02-.52-1.87v-3.9h-1.16v-1h1.16v-1.72l1.32-.34Z"/>
          <path class="f" d="m114.41,120.68c0-.84-.02-1.57-.06-2.24h1.18l.05,1.42h.06c.34-.97,1.16-1.58,2.06-1.58.15,0,.27.01.38.05v1.23c-.14-.03-.27-.04-.45-.04-.96,0-1.64.69-1.82,1.67-.03.18-.06.38-.06.61v3.82h-1.34v-4.93Z"/>
          <path class="f" d="m120.94,116.44c.02.44-.32.79-.86.79-.47,0-.82-.35-.82-.79,0-.47.35-.82.85-.82s.82.35.82.82Zm-1.5,9.17v-7.17h1.35v7.17h-1.35Z"/>
          <path class="f" d="m124.67,116.39v2.05h1.93v1h-1.93v3.86c0,.89.26,1.39,1.01,1.39.35,0,.61-.04.78-.09l.06.98c-.26.1-.68.17-1.21.17-.63,0-1.13-.19-1.46-.55-.38-.38-.52-1.02-.52-1.87v-3.9h-1.16v-1h1.16v-1.72l1.33-.34Z"/>
          <path class="f" d="m132.25,125.61l-.11-.9h-.05c-.41.56-1.21,1.06-2.28,1.06-1.51,0-2.28-1.01-2.28-2.06,0-1.73,1.6-2.68,4.48-2.66v-.15c0-.59-.17-1.65-1.69-1.65-.69,0-1.42.2-1.94.53l-.31-.85c.62-.39,1.51-.64,2.44-.64,2.28,0,2.83,1.49,2.83,2.93v2.68c0,.62.03,1.23.12,1.71h-1.23Zm-.21-3.65c-1.48-.03-3.15.22-3.15,1.61,0,.84.59,1.25,1.28,1.25.97,0,1.58-.6,1.8-1.2.05-.13.07-.28.07-.42v-1.24Z"/>
          <rect class="f" x="135.54" y="115.1" width="1.35" height="10.51"/>
          <path class="f" d="m148.86,115.1v8.67c0,.64.01,1.36.06,1.85h-1.22l-.06-1.25h-.03c-.42.81-1.32,1.41-2.54,1.41-1.8,0-3.18-1.46-3.18-3.64-.01-2.38,1.52-3.85,3.34-3.85,1.14,0,1.9.52,2.24,1.1h.03v-4.28h1.36Zm-1.36,6.27c0-.16-.01-.39-.06-.55-.2-.83-.94-1.51-1.96-1.51-1.4,0-2.23,1.18-2.23,2.77,0,1.45.75,2.65,2.21,2.65.91,0,1.74-.58,1.98-1.55.05-.18.06-.35.06-.56v-1.24Z"/>
          <path class="f" d="m151.86,122.27c.03,1.76,1.2,2.49,2.56,2.49.97,0,1.55-.17,2.06-.38l.23.93c-.48.21-1.29.45-2.48.45-2.3,0-3.67-1.45-3.67-3.61s1.33-3.86,3.49-3.86c2.43,0,3.08,2.06,3.08,3.38,0,.27-.03.47-.05.61h-5.23Zm3.97-.93c.01-.83-.35-2.12-1.87-2.12-1.37,0-1.97,1.21-2.08,2.12h3.95Z"/>
          <rect class="f" x="162.07" y="115.1" width="1.35" height="10.51"/>
          <path class="f" d="m169.82,125.61l-.1-.9h-.05c-.41.56-1.21,1.06-2.28,1.06-1.51,0-2.28-1.01-2.28-2.06,0-1.73,1.6-2.68,4.48-2.66v-.15c0-.59-.17-1.65-1.69-1.65-.69,0-1.41.2-1.94.53l-.3-.85c.61-.39,1.51-.64,2.45-.64,2.27,0,2.83,1.49,2.83,2.93v2.68c0,.62.03,1.23.12,1.71h-1.23Zm-.21-3.65c-1.47-.03-3.15.22-3.15,1.61,0,.84.58,1.25,1.28,1.25.97,0,1.58-.6,1.8-1.2.05-.13.07-.28.07-.42v-1.24Z"/>
          <path class="f" d="m172.92,124.28c.4.25,1.11.52,1.79.52.98,0,1.44-.47,1.44-1.06,0-.62-.38-.97-1.39-1.32-1.34-.46-1.96-1.17-1.96-2.03,0-1.16.96-2.1,2.57-2.1.75,0,1.41.21,1.82.44l-.34.95c-.29-.18-.83-.42-1.52-.42-.8,0-1.25.44-1.25.98,0,.59.45.86,1.42,1.21,1.29.48,1.96,1.1,1.96,2.17,0,1.26-1.02,2.15-2.78,2.15-.81,0-1.57-.19-2.1-.49l.34-.99Z"/>
          <path class="f" d="m183.83,122.47l-1.08,3.14h-1.38l3.52-9.98h1.62l3.53,9.98h-1.43l-1.11-3.14h-3.67Zm3.4-1.01l-1.01-2.86c-.24-.65-.39-1.25-.54-1.82h-.03c-.15.58-.32,1.19-.52,1.81l-1.02,2.88h3.13Z"/>
          <path class="f" d="m191.52,120.68c0-.84-.02-1.57-.06-2.24h1.18l.05,1.42h.06c.34-.97,1.15-1.58,2.06-1.58.15,0,.26.01.39.05v1.23c-.15-.03-.28-.04-.47-.04-.95,0-1.63.69-1.81,1.67-.03.18-.06.38-.06.61v3.82h-1.34v-4.93Z"/>
          <path class="f" d="m198.18,116.39v2.05h1.94v1h-1.94v3.86c0,.89.26,1.39,1.01,1.39.36,0,.62-.04.79-.09l.07.98c-.26.1-.68.17-1.2.17-.63,0-1.14-.19-1.46-.55-.38-.38-.52-1.02-.52-1.87v-3.9h-1.16v-1h1.16v-1.72l1.32-.34Z"/>
          <path class="f" d="m202.33,122.27c.03,1.76,1.19,2.49,2.55,2.49.97,0,1.55-.17,2.06-.38l.23.93c-.48.21-1.29.45-2.48.45-2.29,0-3.66-1.45-3.66-3.61s1.33-3.86,3.5-3.86c2.43,0,3.07,2.06,3.07,3.38,0,.27-.03.47-.04.61h-5.23Zm3.97-.93c.02-.83-.36-2.12-1.87-2.12-1.37,0-1.98,1.21-2.08,2.12h3.95Z"/>
          <path class="f" d="m209.1,124.28c.4.25,1.1.52,1.78.52.99,0,1.45-.47,1.45-1.06,0-.62-.39-.97-1.38-1.32-1.34-.46-1.97-1.17-1.97-2.03,0-1.16.97-2.1,2.57-2.1.76,0,1.42.21,1.83.44l-.34.95c-.29-.18-.83-.42-1.52-.42-.8,0-1.25.44-1.25.98,0,.59.45.86,1.42,1.21,1.29.48,1.95,1.1,1.95,2.17,0,1.26-1.01,2.15-2.78,2.15-.81,0-1.57-.19-2.09-.49l.34-.99Z"/>
        </g>
      </g>
    </g>
  </g>
</svg>