<?xml version="1.0" encoding="utf-8"?>
<!-- Generator: Adobe Illustrator 27.7.0, SVG Export Plug-In . SVG Version: 6.00 Build 0)  -->
<svg version="1.1" id="Capa_1" xmlns="http://www.w3.org/2000/svg" xmlns:xlink="http://www.w3.org/1999/xlink" x="0px" y="0px"
	 viewBox="0 0 2000 2000" style="enable-background:new 0 0 2000 2000;" xml:space="preserve">
<style type="text/css">
	.st0{fill:#E5A373;}
	.st1{opacity:0.15;}
	
		.st2{clip-path:url(#SVGID_00000058553300820553056010000012349009824124953223_);fill:none;stroke:#FFDDAE;stroke-width:20;stroke-linejoin:round;stroke-miterlimit:10;}
	
		.st3{clip-path:url(#SVGID_00000176722129708861626550000010695300718273695126_);fill:none;stroke:#FFDDAE;stroke-width:20;stroke-linejoin:round;stroke-miterlimit:10;}
</style>
<rect class="st0" width="1996.52" height="2000"/>
<g class="st1">
	<g>
		<defs>
			<rect id="SVGID_1_" x="90.34" y="26.98" width="1230.85" height="1110.13"/>
		</defs>
		<clipPath id="SVGID_00000145755706428760230100000009056756755595562143_">
			<use xlink:href="#SVGID_1_"  style="overflow:visible;"/>
		</clipPath>
		
			<path style="clip-path:url(#SVGID_00000145755706428760230100000009056756755595562143_);fill:none;stroke:#FFDDAE;stroke-width:20;stroke-linejoin:round;stroke-miterlimit:10;" d="
			M1269.03,582.02c0,294.28-252.19,532.84-563.26,532.84c-311.08,0-563.27-238.56-563.27-532.84
			c0-294.27,252.19-532.81,563.27-532.81C1016.84,49.21,1269.03,287.76,1269.03,582.02z"/>
		
			<path style="clip-path:url(#SVGID_00000145755706428760230100000009056756755595562143_);fill:none;stroke:#FFDDAE;stroke-width:20;stroke-linejoin:round;stroke-miterlimit:10;" d="
			M828.77,554.78c0,68.27-61.55,123.62-137.47,123.62c-75.91,0-137.46-55.35-137.46-123.62c0-68.27,61.55-123.61,137.46-123.61
			C767.23,431.17,828.77,486.51,828.77,554.78z"/>
	</g>
</g>
<g class="st1">
	<g>
		<defs>
			<rect id="SVGID_00000145764612662530183130000016726717251998496432_" x="652.53" y="799.17" width="1235.63" height="1145.76"/>
		</defs>
		<clipPath id="SVGID_00000124869838738884700950000013463013993760901259_">
			<use xlink:href="#SVGID_00000145764612662530183130000016726717251998496432_"  style="overflow:visible;"/>
		</clipPath>
		
			<path style="clip-path:url(#SVGID_00000124869838738884700950000013463013993760901259_);fill:none;stroke:#FFDDAE;stroke-width:20;stroke-linejoin:round;stroke-miterlimit:10;" d="
			M1833.6,1372.03c0,294.28-252.19,532.84-563.26,532.84c-311.08,0-563.27-238.56-563.27-532.84
			c0-294.27,252.19-532.81,563.27-532.81C1581.42,839.22,1833.6,1077.77,1833.6,1372.03z"/>
		
			<path style="clip-path:url(#SVGID_00000124869838738884700950000013463013993760901259_);fill:none;stroke:#FFDDAE;stroke-width:20;stroke-linejoin:round;stroke-miterlimit:10;" d="
			M1393.35,1344.79c0,68.27-61.55,123.62-137.47,123.62c-75.91,0-137.46-55.35-137.46-123.62c0-68.27,61.55-123.61,137.46-123.61
			C1331.8,1221.18,1393.35,1276.52,1393.35,1344.79z"/>
	</g>
</g>
</svg>
