<?xml version="1.0" encoding="utf-8"?>
<!-- Generator: Adobe Illustrator 27.7.0, SVG Export Plug-In . SVG Version: 6.00 Build 0)  -->
<svg version="1.1" id="Capa_1" xmlns="http://www.w3.org/2000/svg" xmlns:xlink="http://www.w3.org/1999/xlink" x="0px" y="0px"
	 viewBox="0 0 2000 2000" style="enable-background:new 0 0 2000 2000;" xml:space="preserve">
<style type="text/css">
	.st0{fill:#6B422B;}
	.st1{opacity:0.15;}
	
		.st2{clip-path:url(#SVGID_00000059276293239022341360000011388189277348011448_);fill:none;stroke:#E5A373;stroke-width:20;stroke-linejoin:round;stroke-miterlimit:10;}
	
		.st3{clip-path:url(#SVGID_00000021814346501076211700000011457433124780885921_);fill:none;stroke:#E5A373;stroke-width:20;stroke-linejoin:round;stroke-miterlimit:10;}
	.st4{fill:none;}
</style>
<rect x="0.67" y="-7.12" class="st0" width="1999.33" height="2014.91"/>
<g class="st1">
	<g>
		<defs>
			<rect id="SVGID_1_" x="122.07" y="80.06" width="1218.94" height="1122.45"/>
		</defs>
		<clipPath id="SVGID_00000097494050737603568940000018206359341708802192_">
			<use xlink:href="#SVGID_1_"  style="overflow:visible;"/>
		</clipPath>
		
			<path style="clip-path:url(#SVGID_00000097494050737603568940000018206359341708802192_);fill:none;stroke:#E5A373;stroke-width:20;stroke-linejoin:round;stroke-miterlimit:10;" d="
			M1292.92,641.27c0,293.29-251.34,531.06-561.37,531.06c-310.04,0-561.38-237.76-561.38-531.06
			c0-293.28,251.34-531.03,561.38-531.03C1041.57,110.25,1292.92,347.99,1292.92,641.27z"/>
		
			<path style="clip-path:url(#SVGID_00000097494050737603568940000018206359341708802192_);fill:none;stroke:#E5A373;stroke-width:20;stroke-linejoin:round;stroke-miterlimit:10;" d="
			M854.13,614.12c0,68.04-61.34,123.2-137.01,123.2c-75.66,0-137-55.16-137-123.2c0-68.04,61.34-123.2,137-123.2
			C792.79,490.93,854.13,546.09,854.13,614.12z"/>
	</g>
</g>
<g class="st1">
	<g>
		<defs>
			<rect id="SVGID_00000030486841096126590300000004274906248509369229_" x="690.46" y="857.3" width="1207.54" height="1142.7"/>
		</defs>
		<clipPath id="SVGID_00000054254889565073873440000014909462009798536109_">
			<use xlink:href="#SVGID_00000030486841096126590300000004274906248509369229_"  style="overflow:visible;"/>
		</clipPath>
		
			<path style="clip-path:url(#SVGID_00000054254889565073873440000014909462009798536109_);fill:none;stroke:#E5A373;stroke-width:20;stroke-linejoin:round;stroke-miterlimit:10;" d="
			M1855.6,1428.64c0,293.29-251.34,531.06-561.37,531.06c-310.04,0-561.38-237.76-561.38-531.06
			c0-293.28,251.34-531.03,561.38-531.03C1604.25,897.61,1855.6,1135.36,1855.6,1428.64z"/>
		
			<path style="clip-path:url(#SVGID_00000054254889565073873440000014909462009798536109_);fill:none;stroke:#E5A373;stroke-width:20;stroke-linejoin:round;stroke-miterlimit:10;" d="
			M1416.81,1401.49c0,68.04-61.34,123.2-137.01,123.2c-75.65,0-137-55.16-137-123.2c0-68.04,61.34-123.2,137-123.2
			C1355.47,1278.29,1416.81,1333.45,1416.81,1401.49z"/>
	</g>
</g>
<rect x="623.91" y="360.93" class="st4" width="752.85" height="1232.79"/>
</svg>
